<svg width="25" height="24" viewBox="0 0 25 24" fill="none" xmlns="http://www.w3.org/2000/svg">
<g clip-path="url(#clip0_161_1795)">
<path d="M22.5071 7.69583H21.263C21.2535 7.68524 21.2446 7.67431 21.2344 7.66419L14.4519 0.881563C14.1463 0.575937 13.6507 0.575937 13.3451 0.881563C13.0395 1.18719 13.0395 1.6827 13.3451 1.98833L19.0525 7.69578H5.61391L11.3214 1.98833C11.627 1.6827 11.627 1.18719 11.3214 0.881563C11.0158 0.575937 10.5203 0.575937 10.2146 0.881563L3.43202 7.66419C3.42185 7.67436 3.41294 7.68528 3.40342 7.69583H2.15936C1.15244 7.69583 0.333252 8.51502 0.333252 9.52189V10.5654C0.333252 11.5245 1.07646 12.3132 2.01719 12.386L3.51719 21.3861C3.70671 22.5229 4.68063 23.348 5.8331 23.348H19.0626C20.2235 23.348 21.2227 22.4814 21.3869 21.3322L22.6651 12.3847C23.5983 12.3043 24.3332 11.519 24.3332 10.5654V9.52189C24.3333 8.51502 23.5141 7.69583 22.5071 7.69583ZM22.768 10.5654C22.768 10.7092 22.651 10.8262 22.5072 10.8262C22.2669 10.8262 15.024 10.8262 14.6811 10.8262C14.2489 10.8262 13.8985 11.1766 13.8985 11.6089C13.8985 12.041 14.2489 12.3915 14.6811 12.3915H21.0831L19.8375 21.1109C19.7827 21.494 19.4497 21.7828 19.0627 21.7828H5.8331C5.44896 21.7828 5.1243 21.5078 5.06111 21.1288L3.60494 12.3915H9.98542C10.4176 12.3915 10.768 12.0411 10.768 11.6089C10.768 11.1767 10.4177 10.8262 9.98542 10.8262C9.64206 10.8262 2.39861 10.8262 2.15936 10.8262C2.0155 10.8262 1.8985 10.7092 1.8985 10.5654V9.52189C1.8985 9.37803 2.01555 9.26103 2.15936 9.26103H22.5072C22.651 9.26103 22.768 9.37808 22.768 9.52189V10.5654Z" fill="#FFFFFF"/>
<path d="M7.63761 13.9565C7.20542 13.9565 6.85498 14.3069 6.85498 14.7392V19.4348C6.85498 19.867 7.20537 20.2174 7.63761 20.2174C8.06984 20.2174 8.42023 19.8671 8.42023 19.4348V14.7391C8.42023 14.3069 8.06984 13.9565 7.63761 13.9565Z" fill="#FFFFFF"/>
<path d="M12.3332 13.9565C11.901 13.9565 11.5505 14.3069 11.5505 14.7392V19.4348C11.5505 19.867 11.9009 20.2174 12.3332 20.2174C12.7653 20.2174 13.1158 19.8671 13.1158 19.4348V14.7391C13.1158 14.3069 12.7653 13.9565 12.3332 13.9565Z" fill="#FFFFFF"/>
<path d="M17.029 13.9565C16.5968 13.9565 16.2463 14.3069 16.2463 14.7392V19.4348C16.2463 19.867 16.5967 20.2174 17.029 20.2174C17.4612 20.2174 17.8116 19.8671 17.8116 19.4348V14.7391C17.8116 14.3069 17.4612 13.9565 17.029 13.9565Z" fill="#FFFFFF"/>
</g>
<defs>
<clipPath id="clip0_161_1795">
<rect width="24" height="24" fill="white" transform="translate(0.333252)"/>
</clipPath>
</defs>
</svg>
