<svg width="28" height="28" viewBox="0 0 28 28" fill="none" xmlns="http://www.w3.org/2000/svg">
<path d="M20.1558 3.00271C20.4737 2.68481 20.8511 2.43264 21.2664 2.2606C21.6818 2.08855 22.1269 2 22.5765 2C23.0261 2 23.4713 2.08855 23.8866 2.2606C24.302 2.43264 24.6794 2.68481 24.9973 3.00271C25.3152 3.32061 25.5674 3.69802 25.7394 4.11337C25.9115 4.52873 26 4.9739 26 5.42348C26 5.87306 25.9115 6.31824 25.7394 6.73359C25.5674 7.14895 25.3152 7.52635 24.9973 7.84425L8.65711 24.1844L2 26L3.81558 19.3429L20.1558 3.00271Z" stroke="#FFFFFF" stroke-width="3.02596" stroke-linecap="round" stroke-linejoin="round"/>
</svg>
