<svg width="25" height="24" viewBox="0 0 25 24" fill="none" xmlns="http://www.w3.org/2000/svg">
<path fill-rule="evenodd" clip-rule="evenodd" d="M16.739 4.02447C15.7729 3.04182 14.4095 2.5 12.8186 2.5C11.2277 2.5 9.86433 3.04182 8.89827 4.02447C7.93296 5.00636 7.40304 6.38891 7.40304 8C7.40304 10.169 8.3474 11.567 9.51619 12.4062C9.74334 12.5692 9.97809 12.7107 10.2149 12.8327C8.90874 13.1916 7.84818 13.8173 6.98468 14.5934C5.61931 15.8205 4.77306 17.3993 4.20292 18.813C4.09964 19.0691 4.22352 19.3604 4.47963 19.4637C4.73573 19.567 5.02706 19.4431 5.13034 19.187C5.67301 17.8414 6.44805 16.4202 7.65312 15.3371C8.8461 14.265 10.4867 13.5 12.8186 13.5C14.9986 13.5 16.5724 14.1685 17.7406 15.1279C18.9186 16.0953 19.7119 17.3816 20.2803 18.6532C20.6595 19.5016 19.994 20.5 18.9493 20.5H7.41148C7.13534 20.5 6.91148 20.7239 6.91148 21C6.91148 21.2761 7.13534 21.5 7.41148 21.5H18.9493C20.6014 21.5 21.9145 19.8588 21.1933 18.2452C20.5898 16.8952 19.717 15.4569 18.3753 14.3551C17.5789 13.7011 16.6269 13.1737 15.4869 12.8507C16.0966 12.5136 16.5978 12.0662 16.9966 11.5591C17.8595 10.462 18.2342 9.10016 18.2342 8C18.2342 6.38891 17.7043 5.00636 16.739 4.02447ZM16.0259 4.72553C16.781 5.49364 17.2342 6.61109 17.2342 8C17.2342 8.89984 16.9207 10.038 16.2106 10.9409C15.5141 11.8265 14.4273 12.5 12.8186 12.5C12.168 12.5 11.0455 12.2731 10.0994 11.5938C9.17911 10.933 8.40304 9.83102 8.40304 8C8.40304 6.61109 8.85623 5.49364 9.61136 4.72553C10.3658 3.95818 11.4601 3.5 12.8186 3.5C14.1771 3.5 15.2715 3.95818 16.0259 4.72553Z" fill="#FFFFFF"/>
</svg>
